<svg xmlns="http://www.w3.org/2000/svg" enable-background="new 0 0 2500 2000" viewBox="0 0 2500 2000"><rect width="2500" height="2000" fill="none"/><path fill="#d4e0ff" d="M1301.25,1089.12c0,67-26.84,127.73-70.37,172.01c-4.64,4.73-9.48,9.27-14.49,13.61
		c-43.05,37.27-99.18,59.82-160.59,59.82c-51.84,0-99.93-16.07-139.55-43.5c-40.93,7.95-117.68,23.19-158.61,31.33
		c-11.32,2.25-20.38-9.35-15.46-19.79l74.46-158.08c-4.11-17.81-6.28-36.35-6.28-55.4c0-92.63,51.32-173.28,127.08-215.06
		c5.09-2.81,10.3-5.44,15.61-7.88c31.25-14.45,66.06-22.5,102.75-22.5C1191.35,843.68,1301.25,953.57,1301.25,1089.12z"/><path fill="#eef2fe" d="M1793.6,1266.23c-60.91-12.11-175.13-34.79-236.04-46.62c-58.96,40.83-130.53,64.74-207.67,64.74
			c-201.72,0-365.25-163.53-365.25-365.25c0-201.72,163.53-365.25,365.25-365.25c201.72,0,365.25,163.53,365.25,365.25
			c0,28.35-3.23,55.95-9.35,82.45l110.81,235.24C1823.93,1252.32,1810.45,1269.58,1793.6,1266.23z"/><path fill="#d4e0ff" d="M1557.56,1219.61c0,0,44.59-38.13,68.93-76.16v89.67L1557.56,1219.61z"/><path fill="#f0566e" d="M1552.92,1063.3h-402.45c-22.82,0-36.54-25.32-24.08-44.44l201.23-308.74c11.34-17.4,36.82-17.4,48.16,0
			L1577,1018.86C1589.46,1037.98,1575.74,1063.3,1552.92,1063.3z"/><path fill="#fff" d="M1351.69,949.73L1351.69,949.73c-8.66,0-15.74-6.88-15.99-15.54l-4.26-148.3
			c-0.26-9.01,6.97-16.46,15.99-16.46h8.52c9.01,0,16.25,7.44,15.99,16.46l-4.26,148.3
			C1367.43,942.84,1360.35,949.73,1351.69,949.73z"/><circle cx="1351.69" cy="989.04" r="24.18" fill="#fff"/></svg>