<svg width="137" height="126" viewBox="0 0 137 126" fill="none" xmlns="http://www.w3.org/2000/svg">
<path d="M117 0.607941C117.597 2.86048 118.154 4.03693 120 5.80372H114C116.02 4.03449 116.669 2.89401 117 0.607941Z" fill="#D9D9D9" fill-opacity="0.34"/>
<path d="M117 0.607941C117.597 2.86048 118.154 4.03693 120 5.80372H114C116.02 4.03449 116.669 2.89401 117 0.607941Z" fill="#D9D9D9" fill-opacity="0.34"/>
<path d="M117 10.9997C116.403 8.74725 115.846 7.57084 114 5.80421L120 5.80371C117.98 7.5731 117.331 8.71364 117 10.9997Z" fill="#D9D9D9" fill-opacity="0.34"/>
<path d="M117 10.9997C116.403 8.74725 115.846 7.57084 114 5.80421L120 5.80371C117.98 7.5731 117.331 8.71364 117 10.9997Z" fill="#D9D9D9" fill-opacity="0.34"/>
<g filter="url(#filter0_i_65_114)">
<circle cx="38" cy="116" r="7" fill="#D9D9D9" fill-opacity="0.43"/>
</g>
<g filter="url(#filter1_i_65_114)">
<circle cx="53.5" cy="115.5" r="4.5" fill="#D9D9D9" fill-opacity="0.43"/>
</g>
<g filter="url(#filter2_i_65_114)">
<circle cx="27.5" cy="37.5" r="4.5" fill="#D9D9D9" fill-opacity="0.43"/>
</g>
<g filter="url(#filter3_i_65_114)">
<circle cx="77" cy="59" r="53" fill="#D9D9D9" fill-opacity="0.43"/>
</g>
<line x1="24.7355" y1="67.1193" x2="36.836" y2="59.5757" stroke="white" stroke-opacity="0.29"/>
<g filter="url(#filter4_i_65_114)">
<circle cx="116.5" cy="98.5" r="10.5" fill="#D9D9D9" fill-opacity="0.43"/>
</g>
<path d="M2.02078 50C2.42267 51.5173 2.79781 52.3097 4.04141 53.4998H0.000152588C1.36087 52.3081 1.79755 51.5399 2.02078 50Z" fill="#D9D9D9" fill-opacity="0.34"/>
<path d="M2.02078 50C2.42267 51.5173 2.79781 52.3097 4.04141 53.4998H0.000152588C1.36087 52.3081 1.79755 51.5399 2.02078 50Z" fill="#D9D9D9" fill-opacity="0.34"/>
<path d="M2.02091 56.9998C1.61889 55.4826 1.24368 54.6902 -1.47234e-05 53.5002L4.04124 53.4998C2.68063 54.6917 2.24401 55.4599 2.02091 56.9998Z" fill="#D9D9D9" fill-opacity="0.34"/>
<path d="M2.02091 56.9998C1.61889 55.4826 1.24368 54.6902 -1.47234e-05 53.5002L4.04124 53.4998C2.68063 54.6917 2.24401 55.4599 2.02091 56.9998Z" fill="#D9D9D9" fill-opacity="0.34"/>
<path d="M97.4434 116C97.9601 117.951 98.4424 118.97 100.041 120.5H94.8455C96.5949 118.968 97.1564 117.98 97.4434 116Z" fill="#D9D9D9" fill-opacity="0.34"/>
<path d="M97.4434 116C97.9601 117.951 98.4424 118.97 100.041 120.5H94.8455C96.5949 118.968 97.1564 117.98 97.4434 116Z" fill="#D9D9D9" fill-opacity="0.34"/>
<path d="M97.4436 125C96.9267 123.049 96.4443 122.03 94.8453 120.5L100.041 120.5C98.2918 122.032 97.7304 123.02 97.4436 125Z" fill="#D9D9D9" fill-opacity="0.34"/>
<path d="M97.4436 125C96.9267 123.049 96.4443 122.03 94.8453 120.5L100.041 120.5C98.2918 122.032 97.7304 123.02 97.4436 125Z" fill="#D9D9D9" fill-opacity="0.34"/>
<path d="M6.44343 55C6.7305 56.0838 6.99845 56.6498 7.88673 57.4999H5.00012C5.97206 56.6486 6.28398 56.0999 6.44343 55Z" fill="#D9D9D9" fill-opacity="0.34"/>
<path d="M6.44343 55C6.7305 56.0838 6.99845 56.6498 7.88673 57.4999H5.00012C5.97206 56.6486 6.28398 56.0999 6.44343 55Z" fill="#D9D9D9" fill-opacity="0.34"/>
<path d="M6.4435 59.9999C6.15635 58.9161 5.88834 58.3501 4.99999 57.5001L7.8866 57.4999C6.91473 58.3512 6.60286 58.9 6.4435 59.9999Z" fill="#D9D9D9" fill-opacity="0.34"/>
<path d="M6.4435 59.9999C6.15635 58.9161 5.88834 58.3501 4.99999 57.5001L7.8866 57.4999C6.91473 58.3512 6.60286 58.9 6.4435 59.9999Z" fill="#D9D9D9" fill-opacity="0.34"/>
<circle cx="136" cy="62" r="1" fill="white" fill-opacity="0.52"/>
<circle cx="94" cy="125" r="1" fill="white" fill-opacity="0.52"/>
<circle cx="20" cy="34" r="1" fill="white" fill-opacity="0.52"/>
<circle cx="60.5" cy="57.5" r="0.5" fill="white" fill-opacity="0.52"/>
<circle cx="65.5" cy="97.5" r="0.5" fill="white" fill-opacity="0.52"/>
<circle cx="113.5" cy="66.5" r="0.5" fill="white" fill-opacity="0.52"/>
<circle cx="78.5" cy="21.5" r="0.5" fill="white" fill-opacity="0.52"/>
<line x1="27.6415" y1="78.427" x2="52.8294" y2="62.7244" stroke="white" stroke-opacity="0.29"/>
<line x1="32.7355" y1="88.1193" x2="44.836" y2="80.5757" stroke="white" stroke-opacity="0.29"/>
<line x1="41.7355" y1="98.7081" x2="56.3845" y2="89.5757" stroke="white" stroke-opacity="0.29"/>
<line x1="75.9726" y1="72.5146" x2="126.868" y2="40.7859" stroke="white" stroke-opacity="0.29"/>
<line x1="69.7323" y1="94.3065" x2="108.732" y2="69.5777" stroke="white" stroke-opacity="0.29"/>
<line x1="118.735" y1="63.7058" x2="130.173" y2="56.5757" stroke="white" stroke-opacity="0.29"/>
<line x1="51.7031" y1="105.655" x2="59.7679" y2="100.627" stroke="white" stroke-opacity="0.29"/>
<line x1="92.7355" y1="20.7058" x2="104.173" y2="13.5757" stroke="white" stroke-opacity="0.29"/>
<line x1="71.7355" y1="13.7058" x2="83.1726" y2="6.5757" stroke="white" stroke-opacity="0.29"/>
<line x1="32.7355" y1="30.7058" x2="44.1726" y2="23.5757" stroke="white" stroke-opacity="0.29"/>
<line x1="114.735" y1="84.7058" x2="126.173" y2="77.5757" stroke="white" stroke-opacity="0.29"/>
<line x1="114.735" y1="36.0431" x2="121.902" y2="31.5757" stroke="white" stroke-opacity="0.29"/>
<line x1="24.7152" y1="53.5433" x2="62.4141" y2="30.0412" stroke="white" stroke-opacity="0.29"/>
<line x1="69.9725" y1="111.472" x2="94.4985" y2="96.1817" stroke="white" stroke-opacity="0.29"/>
<line x1="66.8177" y1="53.7085" x2="109.24" y2="27.2617" stroke="white" stroke-opacity="0.29"/>
<defs>
<filter id="filter0_i_65_114" x="31" y="109" width="14" height="14" filterUnits="userSpaceOnUse" color-interpolation-filters="sRGB">
<feFlood flood-opacity="0" result="BackgroundImageFix"/>
<feBlend mode="normal" in="SourceGraphic" in2="BackgroundImageFix" result="shape"/>
<feColorMatrix in="SourceAlpha" type="matrix" values="0 0 0 0 0 0 0 0 0 0 0 0 0 0 0 0 0 0 127 0" result="hardAlpha"/>
<feOffset/>
<feGaussianBlur stdDeviation="1.75"/>
<feComposite in2="hardAlpha" operator="arithmetic" k2="-1" k3="1"/>
<feColorMatrix type="matrix" values="0 0 0 0 1 0 0 0 0 1 0 0 0 0 1 0 0 0 0.4 0"/>
<feBlend mode="normal" in2="shape" result="effect1_innerShadow_65_114"/>
</filter>
<filter id="filter1_i_65_114" x="49" y="111" width="9" height="9" filterUnits="userSpaceOnUse" color-interpolation-filters="sRGB">
<feFlood flood-opacity="0" result="BackgroundImageFix"/>
<feBlend mode="normal" in="SourceGraphic" in2="BackgroundImageFix" result="shape"/>
<feColorMatrix in="SourceAlpha" type="matrix" values="0 0 0 0 0 0 0 0 0 0 0 0 0 0 0 0 0 0 127 0" result="hardAlpha"/>
<feMorphology radius="2" operator="erode" in="SourceAlpha" result="effect1_innerShadow_65_114"/>
<feOffset/>
<feGaussianBlur stdDeviation="1.65"/>
<feComposite in2="hardAlpha" operator="arithmetic" k2="-1" k3="1"/>
<feColorMatrix type="matrix" values="0 0 0 0 1 0 0 0 0 1 0 0 0 0 1 0 0 0 0.24 0"/>
<feBlend mode="normal" in2="shape" result="effect1_innerShadow_65_114"/>
</filter>
<filter id="filter2_i_65_114" x="23" y="33" width="9" height="9" filterUnits="userSpaceOnUse" color-interpolation-filters="sRGB">
<feFlood flood-opacity="0" result="BackgroundImageFix"/>
<feBlend mode="normal" in="SourceGraphic" in2="BackgroundImageFix" result="shape"/>
<feColorMatrix in="SourceAlpha" type="matrix" values="0 0 0 0 0 0 0 0 0 0 0 0 0 0 0 0 0 0 127 0" result="hardAlpha"/>
<feOffset/>
<feGaussianBlur stdDeviation="2"/>
<feComposite in2="hardAlpha" operator="arithmetic" k2="-1" k3="1"/>
<feColorMatrix type="matrix" values="0 0 0 0 1 0 0 0 0 1 0 0 0 0 1 0 0 0 0.36 0"/>
<feBlend mode="normal" in2="shape" result="effect1_innerShadow_65_114"/>
</filter>
<filter id="filter3_i_65_114" x="24" y="6" width="106" height="106" filterUnits="userSpaceOnUse" color-interpolation-filters="sRGB">
<feFlood flood-opacity="0" result="BackgroundImageFix"/>
<feBlend mode="normal" in="SourceGraphic" in2="BackgroundImageFix" result="shape"/>
<feColorMatrix in="SourceAlpha" type="matrix" values="0 0 0 0 0 0 0 0 0 0 0 0 0 0 0 0 0 0 127 0" result="hardAlpha"/>
<feMorphology radius="4" operator="erode" in="SourceAlpha" result="effect1_innerShadow_65_114"/>
<feOffset/>
<feGaussianBlur stdDeviation="10.35"/>
<feComposite in2="hardAlpha" operator="arithmetic" k2="-1" k3="1"/>
<feColorMatrix type="matrix" values="0 0 0 0 1 0 0 0 0 1 0 0 0 0 1 0 0 0 0.39 0"/>
<feBlend mode="normal" in2="shape" result="effect1_innerShadow_65_114"/>
</filter>
<filter id="filter4_i_65_114" x="106" y="88" width="21" height="21" filterUnits="userSpaceOnUse" color-interpolation-filters="sRGB">
<feFlood flood-opacity="0" result="BackgroundImageFix"/>
<feBlend mode="normal" in="SourceGraphic" in2="BackgroundImageFix" result="shape"/>
<feColorMatrix in="SourceAlpha" type="matrix" values="0 0 0 0 0 0 0 0 0 0 0 0 0 0 0 0 0 0 127 0" result="hardAlpha"/>
<feMorphology radius="1" operator="dilate" in="SourceAlpha" result="effect1_innerShadow_65_114"/>
<feOffset/>
<feGaussianBlur stdDeviation="2.35"/>
<feComposite in2="hardAlpha" operator="arithmetic" k2="-1" k3="1"/>
<feColorMatrix type="matrix" values="0 0 0 0 1 0 0 0 0 1 0 0 0 0 1 0 0 0 0.62 0"/>
<feBlend mode="normal" in2="shape" result="effect1_innerShadow_65_114"/>
</filter>
</defs>
</svg>
