<svg width="127" height="127" viewBox="0 0 127 127" fill="none" xmlns="http://www.w3.org/2000/svg">
<g clip-path="url(#clip0_40_3)">
<path d="M47.6409 43.6562C47.6409 46.814 46.3865 49.8424 44.1536 52.0752C41.9208 54.3081 38.8924 55.5625 35.7346 55.5625C32.5769 55.5625 29.5485 54.3081 27.3156 52.0752C25.0828 49.8424 23.8284 46.814 23.8284 43.6562C23.8284 40.4985 25.0828 37.4701 27.3156 35.2373C29.5485 33.0044 32.5769 31.75 35.7346 31.75C38.8924 31.75 41.9208 33.0044 44.1536 35.2373C46.3865 37.4701 47.6409 40.4985 47.6409 43.6562Z" fill="#22262A"/>
<path d="M15.8909 7.9375C11.6806 7.9375 7.64269 9.61004 4.66555 12.5872C1.68841 15.5643 0.0158691 19.6022 0.0158691 23.8125V103.188C0.0158691 107.398 1.68841 111.436 4.66555 114.413C7.64269 117.39 11.6806 119.062 15.8909 119.062H111.141C115.351 119.062 119.389 117.39 122.366 114.413C125.343 111.436 127.016 107.398 127.016 103.188V23.8125C127.016 19.6022 125.343 15.5643 122.366 12.5872C119.389 9.61004 115.351 7.9375 111.141 7.9375H15.8909ZM111.141 15.875C113.246 15.875 115.265 16.7113 116.754 18.1998C118.242 19.6884 119.078 21.7073 119.078 23.8125V75.4062L89.0984 59.9519C88.3541 59.5791 87.5113 59.4497 86.6894 59.5822C85.8675 59.7147 85.108 60.1023 84.5185 60.6901L55.0704 90.1383L33.9566 76.073C33.1943 75.5655 32.2799 75.3372 31.3685 75.4269C30.4571 75.5166 29.6048 75.9187 28.956 76.5651L7.95337 95.25V23.8125C7.95337 21.7073 8.78964 19.6884 10.2782 18.1998C11.7668 16.7113 13.7857 15.875 15.8909 15.875H111.141Z" fill="#22262A"/>
</g>
<defs>
<clipPath id="clip0_40_3">
<rect width="127" height="127" fill="white"/>
</clipPath>
</defs>
</svg>
