<svg width="127" height="113" viewBox="0 0 127 113" fill="none" xmlns="http://www.w3.org/2000/svg">
<path d="M47.6409 36.6562C47.6409 39.814 46.3865 42.8424 44.1536 45.0752C41.9208 47.3081 38.8924 48.5625 35.7346 48.5625C32.5769 48.5625 29.5485 47.3081 27.3156 45.0752C25.0828 42.8424 23.8284 39.814 23.8284 36.6562C23.8284 33.4985 25.0828 30.4701 27.3156 28.2373C29.5485 26.0044 32.5769 24.75 35.7346 24.75C38.8924 24.75 41.9208 26.0044 44.1536 28.2373C46.3865 30.4701 47.6409 33.4985 47.6409 36.6562Z" fill="#171717"/>
<path d="M15.8909 0.9375C11.6806 0.9375 7.64269 2.61004 4.66555 5.58718C1.68841 8.56432 0.0158691 12.6022 0.0158691 16.8125V96.1875C0.0158691 100.398 1.68841 104.436 4.66555 107.413C7.64269 110.39 11.6806 112.062 15.8909 112.062H111.141C115.351 112.062 119.389 110.39 122.366 107.413C125.343 104.436 127.016 100.398 127.016 96.1875V16.8125C127.016 12.6022 125.343 8.56432 122.366 5.58718C119.389 2.61004 115.351 0.9375 111.141 0.9375H15.8909ZM111.141 8.875C113.246 8.875 115.265 9.71127 116.754 11.1998C118.242 12.6884 119.078 14.7073 119.078 16.8125V68.4062L89.0984 52.9519C88.3541 52.5791 87.5113 52.4497 86.6894 52.5822C85.8675 52.7147 85.108 53.1023 84.5185 53.6901L55.0704 83.1382L33.9566 69.073C33.1943 68.5655 32.2799 68.3372 31.3685 68.4269C30.4571 68.5166 29.6048 68.9187 28.956 69.5651L7.95337 88.25V16.8125C7.95337 14.7073 8.78964 12.6884 10.2782 11.1998C11.7668 9.71127 13.7857 8.875 15.8909 8.875H111.141Z" fill="#171717"/>
</svg>
